<svg width="24" height="24" viewBox="0 0 24 24" fill="none" xmlns="http://www.w3.org/2000/svg">
<g clip-path="url(#clip0_30_288)">
<path d="M12 21C16.9706 21 21 16.9706 21 12C21 7.02944 16.9706 3 12 3C7.02944 3 3 7.02944 3 12C3 16.9706 7.02944 21 12 21Z" stroke="#0F172A" stroke-width="2" stroke-linecap="round" stroke-linejoin="round"/>
<path d="M14 9.75004C13.4171 9.23777 12.6592 8.96989 11.8838 9.00211C11.1085 9.03434 10.3754 9.36417 9.837 9.92304C9.2994 10.4808 8.99902 11.2253 8.99902 12C8.99902 12.7747 9.2994 13.5192 9.837 14.077C10.3754 14.6359 11.1085 14.9657 11.8838 14.998C12.6592 15.0302 13.4171 14.7623 14 14.25" stroke="#0F172A" stroke-width="2" stroke-linecap="round" stroke-linejoin="round"/>
</g>
<defs>
<clipPath id="clip0_30_288">
<rect width="24" height="24" fill="white"/>
</clipPath>
</defs>
</svg>
