<svg width="60" height="60" viewBox="0 0 60 60" fill="none" xmlns="http://www.w3.org/2000/svg">
<circle cx="30" cy="30" r="30" fill="#F9BA1F" fill-opacity="0.4"/>
<path d="M35 41.8749C34.5032 41.8731 34.0271 41.6755 33.675 41.3249L23.675 31.3249C23.3208 30.975 23.1214 30.4979 23.1214 29.9999C23.1214 29.502 23.3208 29.0249 23.675 28.6749L33.675 18.6749C34.1424 18.1733 34.8464 17.9668 35.5107 18.1365C36.1751 18.3061 36.6938 18.8249 36.8635 19.4892C37.0331 20.1536 36.8266 20.8575 36.325 21.3249L27.65 29.9999L36.325 38.6749C36.6792 39.0249 36.8786 39.502 36.8786 39.9999C36.8786 40.4979 36.6792 40.975 36.325 41.3249C35.9729 41.6755 35.4968 41.8731 35 41.8749Z" fill="black"/>
</svg>
