<svg width="20" height="20" viewBox="0 0 20 20" fill="none" xmlns="http://www.w3.org/2000/svg">
<g clip-path="url(#clip0_30_257)">
<path fill-rule="evenodd" clip-rule="evenodd" d="M2.35635 0.639178C2.57507 0.420789 2.8377 0.251376 3.12685 0.142165C3.41599 0.0329548 3.72504 -0.0135589 4.03352 0.00570636C4.342 0.0249716 4.64287 0.109576 4.91618 0.253913C5.18949 0.39825 5.429 0.599023 5.61885 0.842928L7.8626 3.72543C8.27385 4.25418 8.41885 4.94293 8.25635 5.59293L7.5726 8.33043C7.5375 8.47223 7.53953 8.62068 7.5785 8.76147C7.61747 8.90225 7.69207 9.03062 7.7951 9.13418L10.8664 12.2054C10.97 12.3087 11.0986 12.3834 11.2396 12.4224C11.3807 12.4613 11.5294 12.4633 11.6714 12.4279L14.4076 11.7442C14.7284 11.6644 15.0631 11.6584 15.3866 11.7266C15.71 11.7948 16.0138 11.9355 16.2751 12.1379L19.1576 14.3804C20.1939 15.1867 20.2889 16.7179 19.3614 17.6442L18.0688 18.9367C17.1439 19.8617 15.7613 20.2679 14.4726 19.8142C11.1734 18.6549 8.17827 16.7664 5.7101 14.2892C3.23307 11.8214 1.34454 8.82664 0.1851 5.52793C-0.2674 4.24043 0.13885 2.85668 1.06385 1.93168L2.35635 0.639178Z" fill="#0F172A"/>
</g>
<defs>
<clipPath id="clip0_30_257">
<rect width="20" height="20" fill="white"/>
</clipPath>
</defs>
</svg>
