<svg width="16" height="16" viewBox="0 0 16 16" fill="none" xmlns="http://www.w3.org/2000/svg" class="arrow-icon">
<path d="M14.6667 7.12821L8.83333 1.29488C8.51626 0.979291 8.05491 0.856836 7.62307 0.973637C7.19123 1.09044 6.8545 1.42875 6.73974 1.86114C6.62497 2.29352 6.74959 2.75429 7.06667 3.06988L10.7583 6.75321H1.25C0.559644 6.75321 0 7.31285 0 8.00321C0 8.69357 0.559644 9.25321 1.25 9.25321H10.7583L7.06667 12.9365C6.70963 13.294 6.6029 13.8313 6.79619 14.2981C6.98947 14.7649 7.44476 15.0694 7.95 15.0699C8.28546 15.0649 8.60442 14.9235 8.83333 14.6782L14.6667 8.84488C15.1541 8.35685 15.1541 7.56624 14.6667 7.07821V7.12821Z" fill="black"/>
</svg>
