<svg width="17" height="16" viewBox="0 0 17 16" fill="none" xmlns="http://www.w3.org/2000/svg">
<path fill-rule="evenodd" clip-rule="evenodd" d="M3.33333 0.916504H13.3333C15.1743 0.916504 16.6667 2.40889 16.6667 4.24984V11.7498C16.6667 13.5908 15.1743 15.0832 13.3333 15.0832H3.33333C1.49238 15.0832 0 13.5908 0 11.7498V4.24984C0 2.40889 1.49238 0.916504 3.33333 0.916504ZM9.5 8.87484L14.7833 4.95817C15.0191 4.78483 15.0712 4.45386 14.9 4.2165C14.8184 4.10318 14.6944 4.02771 14.5562 4.00731C14.4181 3.9869 14.2776 4.02328 14.1667 4.10817L8.825 7.99984C8.69133 8.13994 8.50614 8.21921 8.3125 8.21921C8.11886 8.21921 7.93367 8.13994 7.8 7.99984L2.5 4.10817C2.38965 4.02595 2.25106 3.99116 2.11496 4.01149C1.97886 4.03183 1.8565 4.10562 1.775 4.2165C1.60202 4.4517 1.6503 4.78227 1.88333 4.95817L7.13333 8.83317C7.46001 9.14308 7.89141 9.31861 8.34167 9.32484C8.77042 9.32475 9.18363 9.16423 9.5 8.87484Z" fill="black"/>
</svg>
